
<svg xmlns="http://www.w3.org/2000/svg" version="1.1" xmlns:xlink="http://www.w3.org/1999/xlink" preserveAspectRatio="none" x="0px" y="0px" width="132px" height="162px" viewBox="0 0 132 162">
<defs>
<g id="Layer0_0_FILL">
<path fill="#C3B3D8" stroke="none" d="
M 83.35 32.2
L 99.45 33.3
Q 117.15 34.15 125.15 33 150.9 29.25 70.35 6.55 44.9 -0.65 29.05 1.1 -0.25 4.35 0.5 35.65 1.25 68.85 16.45 103 30.9 135.35 50.1 151.3 70.5 168.2 84.75 156 101.05 142 103.65 92.55 104.95 67.5 95.15 56.45 87.35 47.7 73.9 48.8 63.05 49.7 55 55.45 51.65 57.85 51.1 59.75 50.5 61.8 53.45 62.35 75.8 66.55 80.6 76.4 84.55 84.4 76.5 94.6 69.65 103.35 58.9 108.65 48.2 113.95 45.5 110.05 22.9 77.55 23.7 58 24.3 42.35 39.8 35.65 50.85 30.9 68.2 31.05 76.9 31.15 83.35 32.2 Z"/>
</g>
</defs>

<g transform="matrix( 1, 0, 0, 1, 0,0) ">
<use xlink:href="#Layer0_0_FILL"/>
</g>
</svg>
