
<svg xmlns="http://www.w3.org/2000/svg" version="1.1" xmlns:xlink="http://www.w3.org/1999/xlink" preserveAspectRatio="none" x="0px" y="0px" width="146px" height="148px" viewBox="0 0 146 148">
<defs>
<g id="Layer0_0_FILL">
<path fill="#F9EC00" stroke="none" d="
M 96.4 32.05
Q 102.7 33.5 105.95 40.95 113.9 59.1 125.05 64.4 129.65 66.6 133.85 65.95 137.85 65.4 140.4 62.5 151.25 49.95 139.95 36.65 130.1 25.05 106 15.25 83.75 6.25 59.2 2.45 34.15 -1.4 20.2 2.35 2.85 7.05 0.8 20.65 0.1 25.5 1.15 32.75 1.75 36.85 3.15 44.5 6.7 70.6 22.05 103.15 28.65 117.35 41.25 138.9 46.6 147.95 56.8 147.8 66.15 147.65 72.8 140.65 79.85 133.35 77.35 124.45 74.4 114 58.5 106.1 35 94.35 37.8 80.9 38.85 76.15 43 71.95 46.35 68.55 49.6 67.25 53 65.9 55.05 65.8 58.3 65.65 61.55 67.9 69.7 73.75 79.75 97.55 84 107.75 97.95 109.6 103.85 110.4 109.05 109.05 114.45 107.75 117 104.7 123.05 97.6 123.45 89 123.95 78.8 115.6 72.3 112.2 69.6 104.15 70 99.55 70.2 89.6 71.2 81 71.55 76.7 68.75 71.1 65.1 70.6 55.35 70.3 49.75 74.5 43.6 78.5 37.75 84.6 34.45 90.95 30.85 96.4 32.05 Z"/>
</g>
</defs>

<g transform="matrix( 1, 0, 0, 1, 0,0) ">
<use xlink:href="#Layer0_0_FILL"/>
</g>
</svg>
