
<svg xmlns="http://www.w3.org/2000/svg" version="1.1" xmlns:xlink="http://www.w3.org/1999/xlink" preserveAspectRatio="none" x="0px" y="0px" width="180px" height="110px" viewBox="0 0 180 110">
<defs>
<g id="Layer0_0_FILL">
<path fill="#FF8703" stroke="none" d="
M 101.25 81.3
Q 124.15 90.25 154.1 96.15 168.95 99.05 179.25 100.25
L 84.95 50.5
Q 54.25 34.35 25.3 32.35 15.85 31.75 10.35 32.85 8.2 33.25 7.95 33.75 7.65 34.25 9.4 34.45 12.75 34.9 22.95 40.35 27.5 42.75 45.6 53.1 81.85 73.7 101.25 81.3
M 179.45 100.3
L 179.5 100.25 179.45 100.25
Q 157.55 74.45 138.5 49.4 133.15 42.35 130.45 39.45 127.1 35.85 121.7 31.7 115.35 26.85 87.35 13.25
L 60.65 0.65
Q 60.35 0.3 60.6 1.7 60.85 3.25 61.95 5.6 65.4 12.9 74.65 22.9 104.3 54.95 179.35 100.25 179.3 100.25 179.25 100.25 162.75 100.3 142.35 97.85 101.3 93.05 81.65 80.85 69.7 73.45 52.7 68.65 28.55 61.9 0.2 62.55
L 29.6 77.5
Q 61.2 93.4 72.2 98 91.25 106 113.05 108.15 146.1 111.4 179.4 100.3 179.446875 100.3 179.5 100.35
L 179.45 100.3 Z"/>
</g>
</defs>

<g transform="matrix( 1, 0, 0, 1, 0,0) ">
<use xlink:href="#Layer0_0_FILL"/>
</g>
</svg>
